<?xml version="1.0" encoding="UTF-8" standalone="no"?>
<svg width="134px" height="261px" viewBox="0 0 134 261" version="1.1" xmlns="http://www.w3.org/2000/svg" xmlns:xlink="http://www.w3.org/1999/xlink">
    <!-- Generator: Sketch 3.6.1 (26313) - http://www.bohemiancoding.com/sketch -->
    <title>Frågetecken</title>
    <desc>Created with Sketch.</desc>
    <defs></defs>
    <g id="Page-1" stroke="none" stroke-width="1" fill="none" fill-rule="evenodd">
        <g id="Frågetecken" fill="#000000">
            <path d="M94.2648287,140.936952 C94.4054027,138.814938 94.4764295,136.679578 94.4764295,134.523457 L94.5622537,134.519008 C92.8664876,119.212627 79.8611756,107.462214 64.1109719,107.462214 C47.2125007,107.462214 33.508758,120.385592 33.508758,137.318703 C33.508758,156.94474 25.0254888,174.352375 11.5377861,186.317808 C19.3078274,190.300848 28.0870419,192.562254 37.3871199,192.562254 C66.9993971,192.562254 91.4237548,169.877016 94.2648287,140.936952" id="Fill-1" transform="translate(53.050020, 150.012234) scale(-1, 1) rotate(-270.000000) translate(-53.050020, -150.012234) "></path>
            <path d="M79.3939151,117.615806 C60.4696991,107.410563 47.5650084,87.3144502 47.5650084,64.2362471 C47.5650084,43.7427197 31.0453471,27.0705975 10.7405467,27.0705975 C-9.55685514,27.0705975 -26.0705975,43.631503 -26.0705975,63.9886046 C-26.0705975,64.6054865 -26.0365638,65.2149539 -26.024726,65.82887 L-25.7894496,67.4111126 C-25.7894496,69.7748379 -25.6769904,72.0347609 -25.5142205,74.2501972 C-25.4505923,74.8596646 -25.360329,75.4617176 -25.2833833,76.0682192 C-24.3896288,83.1504976 -22.741214,89.9984794 -20.3840104,96.5142941 C-7.07683433,133.306256 28.1288072,159.666092 69.3672916,159.666092 C108.406903,159.666092 142.041076,135.968042 156.798383,102.13741 C157.848989,99.7277148 158.81229,97.2705676 159.666092,94.764485 C149.238463,112.688166 129.846654,124.7574 107.693675,124.7574 C97.4672888,124.7574 87.8342724,122.168276 79.3939151,117.615806 Z" id="Fill-3" transform="translate(66.797747, 93.368345) scale(-1, 1) rotate(-270.000000) translate(-66.797747, -93.368345) "></path>
            <path d="M75.8257743,230.334124 C74.6242368,215.186412 61.3954862,203.883831 46.2800849,205.087937 C31.1646836,206.292043 19.8862119,219.549071 21.0877494,234.696784 C22.2907666,249.844496 35.5180375,261.147077 50.6334388,259.942971 C65.7488401,258.737382 77.0273119,245.481836 75.8257743,230.334124" id="Fill-5"></path>
        </g>
    </g>
</svg>