<?xml version="1.0" encoding="UTF-8" standalone="no"?>
<svg width="20px" height="16px" viewBox="0 0 20 16" version="1.1" xmlns="http://www.w3.org/2000/svg" xmlns:xlink="http://www.w3.org/1999/xlink" xmlns:sketch="http://www.bohemiancoding.com/sketch/ns">
    <!-- Generator: Sketch 3.4 (15575) - http://www.bohemiancoding.com/sketch -->
    <title>icon-youtube</title>
    <desc>Created with Sketch.</desc>
    <defs></defs>
    <g id="Page-1" stroke="none" stroke-width="1" fill="none" fill-rule="evenodd" sketch:type="MSPage">
        <g id="Artikel" sketch:type="MSArtboardGroup" transform="translate(-378.000000, -4244.000000)" fill="#1183D3">
            <g id="Footer" sketch:type="MSLayerGroup" transform="translate(-145.000000, 3949.000000)">
                <g id="Shape-+-YouTube-kanal" transform="translate(523.000000, 292.000000)" sketch:type="MSShapeGroup">
                    <path d="M8,15.5 L8,6.5 L14,11 L8,15.5 Z M18,3.4 C17.4,3.2 13.7,3 10,3 C6.3,3 2.6,3.19 2,3.38 C0.44,3.9 0,7.4 0,11 C0,14.59 0.44,18.1 2,18.61 C2.6,18.81 6.3,19 10,19 C13.7,19 17.4,18.81 18,18.61 C19.56,18.1 20,14.59 20,11 C20,7.4 19.56,3.91 18,3.4 L18,3.4 Z" id="icon-youtube"></path>
                </g>
            </g>
        </g>
    </g>
</svg>