<?xml version="1.0" encoding="UTF-8" standalone="no"?>
<svg width="21px" height="17px" viewBox="0 0 21 17" version="1.1" xmlns="http://www.w3.org/2000/svg" xmlns:xlink="http://www.w3.org/1999/xlink" xmlns:sketch="http://www.bohemiancoding.com/sketch/ns">
    <!-- Generator: Sketch 3.4 (15575) - http://www.bohemiancoding.com/sketch -->
    <title>icon-twitter</title>
    <desc>Created with Sketch.</desc>
    <defs></defs>
    <g id="Page-1" stroke="none" stroke-width="1" fill="none" fill-rule="evenodd" sketch:type="MSPage">
        <g id="Artikel" sketch:type="MSArtboardGroup" transform="translate(-1086.000000, -869.000000)" fill="#55ACEE">
            <g id="Article-+-SENASTE-KOMMENTARER-" sketch:type="MSLayerGroup" transform="translate(1067.000000, 747.000000)">
                <g id="Article" transform="translate(0.000000, 37.000000)" sketch:type="MSShapeGroup">
                    <g id="Twitter-+-Shape" transform="translate(19.000000, 82.000000)">
                        <path d="M20.92,5 C20.15,5.35 19.32,5.58 18.46,5.69 C19.34,5.16 20.02,4.32 20.34,3.31 C19.51,3.81 18.59,4.16 17.62,4.36 C16.83,3.5 15.72,3 14.46,3 C12.11,3 10.19,4.92 10.19,7.29 C10.19,7.63 10.23,7.96 10.3,8.27 C6.74,8.09 3.57,6.38 1.46,3.79 C1.09,4.42 0.88,5.16 0.88,5.94 C0.88,7.43 1.63,8.75 2.79,9.5 C2.08,9.5 1.42,9.3 0.84,9 C0.84,9 0.84,9 0.84,9.03 C0.84,11.11 2.32,12.85 4.28,13.24 C3.92,13.34 3.54,13.39 3.15,13.39 C2.88,13.39 2.61,13.36 2.35,13.31 C2.89,15 4.46,16.26 6.35,16.29 C4.89,17.45 3.04,18.13 1.02,18.13 C0.68,18.13 0.34,18.11 -3.55271368e-14,18.07 C1.9,19.29 4.16,20 6.58,20 C14.46,20 18.79,13.46 18.79,7.79 C18.79,7.6 18.79,7.42 18.78,7.23 C19.62,6.63 20.34,5.87 20.92,5 L20.92,5 Z" id="icon-twitter"></path>
                    </g>
                </g>
            </g>
        </g>
    </g>
</svg>