<?xml version="1.0" encoding="UTF-8" standalone="no"?>
<svg width="185px" height="53px" viewBox="0 0 185 53" version="1.1" xmlns="http://www.w3.org/2000/svg" xmlns:xlink="http://www.w3.org/1999/xlink" xmlns:sketch="http://www.bohemiancoding.com/sketch/ns">
    <!-- Generator: Sketch 3.4 (15575) - http://www.bohemiancoding.com/sketch -->
    <title>Group</title>
    <desc>Created with Sketch.</desc>
    <defs></defs>
    <g id="Page-1" stroke="none" stroke-width="1" fill="none" fill-rule="evenodd" sketch:type="MSPage">
        <g id="Artikel" sketch:type="MSArtboardGroup" transform="translate(-76.000000, -4328.000000)" fill="#444444">
            <g id="Footer" sketch:type="MSLayerGroup" transform="translate(-145.000000, 3949.000000)">
                <g id="Allt-material-på-sid-+-Group-+-Line" transform="translate(0.000000, 344.000000)">
                    <g id="Group" transform="translate(221.000000, 35.000000)">
                        <g id="Shape-+-BY" transform="translate(61.000000, 1.000000)">
                            <path d="M18.0472758,0.362152103 C22.9037417,0.362152103 27.000051,2.02309048 30.334583,5.346044 C33.6880243,8.68945642 35.3666359,12.7710038 35.3666359,17.5906863 C35.3666359,22.431366 33.7193598,26.4617662 30.4258882,29.6808101 C26.9271149,33.1060581 22.8010909,34.8197588 18.0472758,34.8197588 C13.3745009,34.8197588 9.32033242,33.1259786 5.88368989,29.7421868 C2.4881077,26.3578566 0.789506205,22.3086127 0.789506205,17.5906863 C0.789506205,12.8738367 2.4881077,8.79228923 5.88368989,5.3465824 C9.21822183,2.02309048 13.27185,0.362152103 18.0472758,0.362152103 L18.0472758,0.362152103 Z M18.1088663,3.46974895 C14.1778789,3.46974895 10.8541523,4.84426295 8.13714626,7.59221415 C5.31694912,10.4639954 3.90739082,13.7971784 3.90739082,17.5912247 C3.90739082,21.4057298 5.30668404,24.7087628 8.10527047,27.4960166 C10.9043972,30.2865008 14.2383889,31.6798585 18.1077858,31.6798585 C21.9561123,31.6798585 25.3111744,30.2768097 28.1718916,27.4653283 C30.8888976,24.8605893 32.2471305,21.5699393 32.2471305,17.5901479 C32.2471305,13.6728099 30.8678272,10.3407037 28.1108413,7.59167575 C25.3538555,4.84426295 22.0193236,3.46974895 18.1088663,3.46974895 L18.1088663,3.46974895 Z M22.7400406,13.3142411 L22.7400406,20.3590964 L20.7648221,20.3590964 L20.7648221,28.7262417 L15.3924006,28.7262417 L15.3924006,20.3596347 L13.417182,20.3596347 L13.417182,13.3142411 C13.417182,13.006281 13.5252356,12.745161 13.7408023,12.5298044 C13.9574497,12.3149861 14.2200198,12.2067693 14.5279723,12.2067693 L21.6292503,12.2067693 C21.9166727,12.2067693 22.1749207,12.3144477 22.4007525,12.5298044 C22.6260441,12.745161 22.7400406,13.0068194 22.7400406,13.3142411 L22.7400406,13.3142411 Z M15.6695579,8.88435421 C15.6695579,7.264872 16.4718553,6.45405411 18.078071,6.45405411 C19.6842868,6.45405411 20.486044,7.26379521 20.486044,8.88435421 C20.486044,10.4839159 19.6832062,11.283966 18.078071,11.283966 C16.4729359,11.283966 15.6695579,10.4839159 15.6695579,8.88435421 L15.6695579,8.88435421 Z" id="Shape" sketch:type="MSShapeGroup"></path>
                            <text id="BY" sketch:type="MSTextLayer" font-family="Roboto" font-size="13" font-weight="bold">
                                <tspan x="8" y="51">BY</tspan>
                            </text>
                        </g>
                        <g id="Shape-+-NC" transform="translate(106.000000, 1.000000)">
                            <path d="M17.3531911,0.422451973 C22.2101973,0.422451973 26.3065066,2.08339034 29.6410386,5.40580548 C32.9950202,8.72822062 34.6736318,12.809768 34.6736318,17.6509861 C34.6736318,22.4927426 33.0274362,26.5220661 29.7328841,29.7427252 C26.2335705,33.1668963 22.1080867,34.8795203 17.3531911,34.8795203 C12.6604263,34.8795203 8.60679811,33.1771258 5.19068575,29.7734135 C1.79564383,26.3885449 0.0965020685,22.3484537 0.0965020685,17.6509861 C0.0965020685,12.9335981 1.79564383,8.85205071 5.19122602,5.40634387 C8.52467743,2.08392874 12.5788459,0.422451973 17.3531911,0.422451973 L17.3531911,0.422451973 Z M3.98642916,13.0057426 C3.47209435,14.420636 3.21438668,15.9695889 3.21438668,17.6515245 C3.21438668,21.4671065 4.6136799,24.7690627 7.41226634,27.5573933 C10.2319232,30.3279569 13.5664552,31.7127004 17.4147816,31.7127004 C21.3047087,31.7127004 24.6592306,30.3080364 27.4805082,27.4970934 C28.4886477,26.5339107 29.2806801,25.5287334 29.8560651,24.4804848 L23.342058,21.588783 C23.1140651,22.6768726 22.5646129,23.5625269 21.6904598,24.2484379 C20.8136054,24.9359641 19.7806137,25.3322204 18.5871624,25.4334381 L18.5871624,28.0790948 L16.5800681,28.0790948 L16.5800681,25.4334381 C14.6658998,25.4135176 12.9165132,24.7265298 11.3319081,23.3724747 L13.7085455,20.9728629 C14.8404063,22.0189579 16.1273238,22.5417363 17.5682176,22.5417363 C18.1646731,22.5417363 18.6752261,22.4092919 19.0971751,22.1411729 C19.5191241,21.8757458 19.7303688,21.4353414 19.7303688,20.8183445 C19.7303688,20.3870927 19.5763925,20.0398301 19.2673594,19.7727878 L17.601174,19.0653411 L15.5638247,18.1419994 L12.8160234,16.9419243 L3.98642916,13.0057426 L3.98642916,13.0057426 Z M17.4158622,3.49882211 C13.485415,3.49882211 10.1611481,4.88302715 7.44414213,7.65197562 C6.76448542,8.32927237 6.12696959,9.09917249 5.52997384,9.96006081 L12.1369069,12.9131392 C12.4243293,12.0102564 12.9699997,11.2877347 13.7728374,10.7444975 C14.5745946,10.2012603 15.511959,9.89922255 16.5827695,9.83676911 L16.5827695,7.18949716 L18.5898638,7.18949716 L18.5898638,9.83623072 C20.1750091,9.91806626 21.6153626,10.4516124 22.912005,11.4357924 L20.6580083,13.7433392 C19.6893084,13.0665809 18.7027797,12.7279325 17.6941,12.7279325 C17.1586948,12.7279325 16.6800176,12.8307653 16.2591491,13.0358926 C15.8372001,13.2410198 15.6259554,13.5893592 15.6259554,14.0814492 C15.6259554,14.2251998 15.6772809,14.368412 15.7799317,14.5121626 L17.9717976,15.4974194 L19.4856275,16.1741777 L22.2642241,17.4044027 L31.1229928,21.3416612 C31.4120359,20.1313567 31.5562874,18.9022084 31.5562874,17.6504478 C31.5562874,13.6916536 30.1764438,10.3590091 27.4205385,7.65089884 C24.6813815,4.88302715 21.3463093,3.49882211 17.4158622,3.49882211 L17.4158622,3.49882211 Z" id="Shape" sketch:type="MSShapeGroup"></path>
                            <text id="NC" sketch:type="MSTextLayer" font-family="Roboto" font-size="13" font-weight="bold" letter-spacing="0.722222209">
                                <tspan x="8" y="51">N</tspan>
                                <tspan x="17.9009331" y="51" letter-spacing="0.521604955">C</tspan>
                            </text>
                        </g>
                        <g id="Shape-+-SA" transform="translate(150.000000, 1.000000)">
                            <path d="M17.3911337,0.302390625 C22.2270694,0.302390625 26.3222982,1.97355844 29.6779006,5.31697085 C33.0318822,8.63992438 34.7104938,12.7112424 34.7104938,17.5309248 C34.7104938,22.351684 33.0632177,26.3917753 29.7697461,29.6522754 C26.291503,33.0570644 22.1649387,34.759459 17.3911337,34.759459 C12.718899,34.759459 8.66473059,33.0667555 5.22754779,29.6818869 C1.83250587,26.2991719 0.133364106,22.2493896 0.133364106,17.5309248 C0.133364106,12.8345341 1.83304614,8.76375447 5.22862833,5.31750924 C8.58260991,1.97355844 12.6367784,0.302390625 17.3911337,0.302390625 L17.3911337,0.302390625 Z M17.4527242,3.40944908 C13.5228173,3.40944908 10.1974699,4.79419252 7.48100416,7.56314099 C4.66080702,10.4150018 3.25178899,13.7374169 3.25178899,17.5309248 C3.25178899,21.3669656 4.65108221,24.6678451 7.45020891,27.4373319 C10.2498759,30.2278161 13.5833273,31.6211738 17.4527242,31.6211738 C21.3010507,31.6211738 24.6566531,30.2175866 27.5173703,27.4066436 C30.2343763,24.7819841 31.5926092,21.4907957 31.5926092,17.5314632 C31.5926092,13.5942047 30.2133059,10.2712512 27.45632,7.56367939 C24.717163,4.79365413 21.3831714,3.40944908 17.4527242,3.40944908 L17.4527242,3.40944908 Z M9.73446054,15.0995479 C10.062403,12.9868989 10.9165662,11.3512649 12.2964097,10.1931844 C13.6746325,9.03456549 15.351083,8.45471764 17.3279224,8.45471764 C20.0433076,8.45471764 22.2054587,9.32691218 23.8111342,11.0691477 C25.4162694,12.8119216 26.2191071,15.0484007 26.2191071,17.7753546 C26.2191071,20.4220882 25.3854741,22.6208799 23.7192887,24.3733448 C22.0504019,26.1263482 19.8904118,27.0050034 17.2344561,27.0050034 C15.2797677,27.0050034 13.5925118,26.4213868 12.1721482,25.2503849 C10.7512443,24.0809981 9.89816164,22.4205981 9.61019898,20.2670314 L13.964216,20.2670314 C14.0663266,22.3597599 15.3327139,23.4047782 17.7617573,23.4047782 C18.9751984,23.4047782 19.9536232,22.8819998 20.6943301,21.8359048 C21.4361176,20.7914249 21.8078217,19.3953752 21.8078217,17.6526013 C21.8078217,15.8263767 21.4669129,14.4373261 20.7883367,13.483296 C20.10868,12.5298044 19.1329566,12.0533277 17.8546833,12.0533277 C15.548821,12.0533277 14.2521786,13.0681961 13.9652965,15.0979327 L15.2306034,15.0979327 L11.8042259,18.5129512 L8.37676793,15.0979327 L9.73446054,15.0995479 L9.73446054,15.0995479 Z" id="Shape" sketch:type="MSShapeGroup"></path>
                            <text id="SA" sketch:type="MSTextLayer" font-family="Roboto" font-size="13" font-weight="bold" letter-spacing="0.722222209">
                                <tspan x="8" y="51">S</tspan>
                                <tspan x="16.7139214" y="51" letter-spacing="0.521604955">A</tspan>
                            </text>
                        </g>
                        <g id="Shape-+-Shape" sketch:type="MSShapeGroup">
                            <path d="M26.4511406,0 C33.8645156,0 40.1756562,2.58789062 45.3804219,7.7611875 C47.8714219,10.2530156 49.7653437,13.1001094 51.0572187,16.3024687 C52.3515781,19.5048281 53,22.9034531 53,26.5 C53,30.1280156 52.3598594,33.5274688 51.0837188,36.6967031 C49.8059219,39.8667656 47.9211094,42.6683125 45.4292812,45.0988594 C42.8430469,47.6527969 39.909,49.6096563 36.6271406,50.9669531 C33.3469375,52.3209375 29.9549375,53 26.4527969,53 C22.9506563,53 19.5992344,52.3300469 16.396875,50.9876563 C13.1953438,49.6485781 10.3242344,47.7074531 7.784375,45.1684219 C5.24451563,42.6293906 3.3125,39.7665625 1.9875,36.5799375 C0.6625,33.3933125 0,30.0344375 0,26.5 C0,22.9978594 0.669953125,19.6307031 2.0106875,16.396875 C3.35142187,13.163875 5.3,10.26875 7.85476562,7.71315625 C12.9021875,2.57215625 19.1007031,0 26.4511406,0 L26.4511406,0 Z M26.546375,4.7799375 C20.4902969,4.7799375 15.3948437,6.89414062 11.2616719,11.1200625 C9.1789375,13.2342656 7.57817187,15.6085 6.45854687,18.2419375 C5.33726562,20.8770313 4.77828125,23.6297188 4.77828125,26.5008281 C4.77828125,29.3404688 5.33726562,32.0765938 6.45854687,34.7100313 C7.579,37.3467813 9.1789375,39.6961719 11.2616719,41.7623438 C13.3435781,43.8293438 15.6929687,45.4060937 18.3131562,46.4950781 C20.9308594,47.5832344 23.6760937,48.1297969 26.546375,48.1297969 C29.3851875,48.1297969 32.1362187,47.5782656 34.8052656,46.4735469 C37.4726562,45.3688281 39.8742187,43.7746875 42.022375,41.6944375 C46.1530625,37.6573281 48.2184062,32.5933437 48.2184062,26.5024844 C48.2184062,23.5684375 47.6834375,20.7917344 46.6110156,18.1732031 C45.54025,15.5555 43.9759219,13.2218437 41.9287969,11.16975 C37.6664375,6.909875 32.5411719,4.7799375 26.546375,4.7799375 L26.546375,4.7799375 Z" id="Shape"></path>
                            <path d="M34.4557969,32.8260469 L33.7701094,32.3987344 C32.1627188,34.1734063 29.8464531,35.2905469 27.2635313,35.2905469 C22.4090625,35.2905469 18.4729844,31.3569531 18.4729844,26.5008281 C18.4729844,21.6455313 22.4090625,17.7094531 27.2635313,17.7094531 C29.8464531,17.7094531 32.1627188,18.82825 33.7701094,20.6012656 L34.4557969,20.1739531 L39.1819063,17.2432188 C36.4159688,13.6905625 32.1138594,11.395 27.261875,11.395 C18.9226563,11.395 12.1593594,18.1582969 12.1593594,26.4991719 C12.1593594,34.840875 18.9226563,41.6008594 27.261875,41.6008594 C32.111375,41.6008594 36.417625,39.3069531 39.1819063,35.7534688 L34.4557969,32.8260469 L34.4557969,32.8260469 Z" id="Shape"></path>
                        </g>
                    </g>
                </g>
            </g>
        </g>
    </g>
</svg>